# xmcd
#
# Track frame offsets:
#	150
#	1308
#	13800
#	15215
#	24998
#	25947
#	38974
#	40313
#	56140
#	58125
#	74252
#	75436
#	87058
#	88064
#	102002
#	102914
#	118792
#	119715
#	129974
#	130803
#	143703
#	145114
#	158547
#	159798
#	176683
#	178825
#	190624
#	191351
#	207129
#	208199
#	219191
#	220085
#	232838
#	233855
#
# Disc length: 3258 seconds
#
# Revision: 1
# Processed by: cddbd v1.4PL0 Copyright (c) Steve Scherf et al.
# Submitted via: EasyCDDAExtractor 6.2.0.3
#
DISCID=bf0cb822
DTITLE=Diversos - O Melhor da Festa de Rodeo
DYEAR=2000
DGENRE=Country
TTITLE0=Locução - Marco Brasil
TTITLE1=Carminha
TTITLE2=Locução - Marco Brasil
TTITLE3=Quem Tem, Tem Medo
TTITLE4=Locução - Marco Brasil
TTITLE5=Garagem da Vizinha
TTITLE6=Locução - Jorge Moises
TTITLE7=Ô de Casa Ô de Fora
TTITLE8=Locução - Asa Branca
TTITLE9=Muleca
TTITLE10=Locução - Asa Branca
TTITLE11=Socorro
TTITLE12=Locução - Asa Branca
TTITLE13=Jogo de Truco
TTITLE14=Locução - Barra Mansa
TTITLE15=Saudade Dela
TTITLE16=Locução - Barra Mansa
TTITLE17=60 Dias Apaixonados
TTITLE18=Locução - Adriano do Vale
TTITLE19=Vira e Mexe
TTITLE20=Locução - Jorge Moises
TTITLE21=Sofro e Choro
TTITLE22=Locução - Jorge Moises
TTITLE23=Mexe e Que é Bom
TTITLE24=Locução - Jorge Moises
TTITLE25=Baile na Roça
TTITLE26=Locução - Marco Brasil
TTITLE27=Mulher Madura
TTITLE28=Locução - Jorge Moises
TTITLE29=Garalhão da Madrugada
TTITLE30=Locução - Asa Branca
TTITLE31=Recortando Paulista
TTITLE32=Locução - Asa Branca
TTITLE33=Meu Negócio é Mulher
EXTD=By Rogerio
EXTT0=
EXTT1=
EXTT2=
EXTT3=
EXTT4=
EXTT5=
EXTT6=
EXTT7=
EXTT8=
EXTT9=
EXTT10=
EXTT11=
EXTT12=
EXTT13=
EXTT14=
EXTT15=
EXTT16=
EXTT17=
EXTT18=
EXTT19=
EXTT20=
EXTT21=
EXTT22=
EXTT23=
EXTT24=
EXTT25=
EXTT26=
EXTT27=
EXTT28=
EXTT29=
EXTT30=
EXTT31=
EXTT32=
EXTT33=
PLAYORDER=
